# xmcd CD database file
#
# Track frame offsets:
#	150
#	12032
#	27209
#	42874
#	57342
#	76871
#
# Disc length: 1281 seconds
#
# Revision: 0
# Processed by: cddbd v1.5.2PL0 Copyright (c) Steve Scherf et al.
# Submitted via: CDex 1.51
#
DISCID=3904ff06
DTITLE=Babayaga - Babayaga
DYEAR=2007
DGENRE=Jazz
TTITLE0=Trombacton
TTITLE1=Brattislav's nigun
TTITLE2=The tiger
TTITLE3=Hassapo Servico
TTITLE4=Thème d'Aaron Alexander
TTITLE5=Les cloches
EXTD=YEAR: 2007
EXTT0=
EXTT1=
EXTT2=
EXTT3=
EXTT4=
EXTT5=
PLAYORDER=
